<svg width="434" height="74" viewBox="0 0 434 74" fill="none" xmlns="http://www.w3.org/2000/svg">
<path d="M53.8618 4.84728L41.5738 4.87297C40.7098 4.87477 40.135 5.45198 40.1369 6.31597L40.2228 47.4039L17.8639 5.88254C17.4785 5.21135 16.9019 4.92455 16.1339 4.92615L1.82992 4.95606C0.965925 4.95787 0.39113 5.53507 0.392937 6.39907L0.527411 70.7189C0.529217 71.5829 1.10642 72.1577 1.97042 72.1559L14.2584 72.1302C15.1224 72.1284 15.6972 71.5512 15.6954 70.6872L15.6095 29.5993L37.9683 71.1207C38.3537 71.7918 38.9303 72.0786 39.6983 72.077L54.0023 72.0471C54.8663 72.0453 55.4411 71.4681 55.4393 70.6041L55.3048 6.28426C55.303 5.42027 54.7258 4.84547 53.8618 4.84728ZM88.7664 73.1265C95.3904 73.1126 101.434 71.18 105.458 67.1395C106.32 66.3697 106.319 65.6017 105.933 65.0265L101.986 59.4668C101.408 58.796 101.024 58.6048 100.257 58.9904C96.3255 61.2066 93.0623 61.5974 89.8943 61.6041C83.1743 61.6181 78.7531 59.1314 77.1105 54.0468L104.182 53.9902C108.502 53.9811 109.744 51.0985 109.734 46.2986C109.709 34.2026 101.335 23.7561 86.9352 23.7862C72.4393 23.8165 62.7656 34.4927 62.7945 48.3167C62.8244 62.6207 73.3104 73.1588 88.7664 73.1265ZM76.8972 43.8712C78.0376 38.3008 82.1605 35.8922 87.0565 35.8819C91.9525 35.8717 95.7013 38.1679 96.6732 43.8299L76.8972 43.8712ZM117.545 71.9143L129.257 71.8898C130.121 71.888 130.792 71.3106 130.79 70.4466L130.74 46.6386C130.727 40.3987 133.792 37.1282 138.88 37.1176C144.064 37.1068 146.759 40.3651 146.772 46.6051L146.822 70.4131C146.824 71.2771 147.497 71.8517 148.361 71.8499L159.977 71.8256C160.841 71.8238 161.512 71.2464 161.51 70.3824L161.453 43.1184C161.427 30.8304 154.212 23.6455 144.42 23.666C137.7 23.68 133.387 27.0491 130.709 31.8547L130.218 26.3837C130.216 25.2317 129.639 24.8489 128.775 24.8507L117.447 24.8744C116.583 24.8762 116.008 25.4534 116.01 26.3174L116.102 70.4773C116.104 71.3413 116.681 71.9161 117.545 71.9143ZM193.864 72.9067C200.488 72.8929 206.532 70.9602 210.555 66.9198C211.418 66.15 211.416 65.382 211.031 64.8068L207.083 59.2471C206.506 58.5763 206.121 58.3851 205.354 58.7707C201.423 60.9869 198.16 61.3777 194.992 61.3843C188.272 61.3984 183.85 58.9116 182.208 53.8271L209.28 53.7705C213.6 53.7614 214.842 50.8788 214.832 46.0788C214.806 33.9829 206.432 23.5363 192.033 23.5664C177.537 23.5968 167.863 34.273 167.892 48.097C167.922 62.4009 178.408 72.939 193.864 72.9067ZM181.994 43.6515C183.135 38.0811 187.258 35.6725 192.154 35.6622C197.05 35.652 200.799 37.9481 201.77 43.6101L181.994 43.6515ZM240.339 71.6576L252.627 71.6319C253.491 71.6301 254.065 71.0529 254.064 70.1889L254.009 43.9809L273.305 43.9406C274.169 43.9388 274.744 43.3616 274.742 42.4976L274.72 31.9376C274.718 31.0736 274.141 30.4988 273.277 30.5006L253.981 30.5409L253.954 17.869L274.498 17.826C275.362 17.8242 275.937 17.247 275.935 16.383L275.913 5.82303C275.911 4.95904 275.334 4.38424 274.47 4.38605L240.198 4.4577C239.334 4.45951 238.759 5.03672 238.761 5.90071L238.896 70.2206C238.897 71.0846 239.475 71.6594 240.339 71.6576ZM291.768 17.0219C296.376 17.0123 299.728 13.4533 299.719 8.94128C299.709 4.52528 296.342 0.980317 291.734 0.989951C287.126 0.999585 283.677 4.5588 283.687 8.97479C283.696 13.4868 287.16 17.0315 291.768 17.0219ZM285.93 71.5622L297.834 71.5374C298.698 71.5355 299.272 70.9583 299.271 70.0943L299.178 25.9344C299.176 25.0704 298.599 24.4956 297.735 24.4975L285.831 24.5223C284.967 24.5242 284.392 25.1014 284.394 25.9653L284.487 70.1253C284.488 70.9893 285.066 71.564 285.93 71.5622ZM326.81 72.6288C330.074 72.622 335.257 72.0351 335.252 69.6351L335.235 61.6671C335.233 60.7071 334.464 60.2287 333.504 60.3268C332.256 60.4254 331.392 60.4272 330.528 60.429C328.128 60.434 326.494 59.0934 326.488 56.5014L326.445 35.7655L333.645 35.7504C334.509 35.7486 335.084 35.1714 335.082 34.3074L335.064 25.8594C335.062 24.9954 334.485 24.4206 333.621 24.4224L326.421 24.4375L326.398 13.3975C326.396 12.5335 325.723 11.9589 324.859 11.9607L313.051 11.9854C312.187 11.9872 311.516 12.5646 311.518 13.4286L311.541 24.4686L305.685 24.4808C304.821 24.4826 304.246 25.0598 304.248 25.9238L304.266 34.3718C304.268 35.2358 304.845 35.8106 305.709 35.8088L311.565 35.7966L311.612 58.1645C311.634 69.1085 319.034 72.645 326.81 72.6288ZM363.21 72.5527C370.794 72.5368 377.122 69.1636 381.143 63.8752C381.718 63.202 381.62 62.4342 381.043 61.8594L374.406 55.5372C373.636 54.7708 372.58 54.773 371.91 55.4464C369.323 57.8519 366.829 59.1051 363.661 59.1117C356.557 59.1266 352.322 53.7594 352.309 47.6154C352.297 41.5674 356.51 36.6626 363.422 36.6481C366.686 36.6413 369.185 37.7881 371.686 40.2789C372.455 40.9493 373.511 40.9471 374.278 40.1775L380.889 33.8276C381.463 33.2504 381.558 32.3862 380.98 31.8114C376.937 26.5399 370.594 23.1931 362.722 23.2096C348.514 23.2393 338.169 33.8209 338.197 47.6449C338.227 61.7569 348.81 72.5828 363.21 72.5527ZM416.261 23.0976C409.541 23.1117 405.228 26.4807 402.55 31.2863L402.493 4.11839C402.491 3.25439 401.818 2.6798 400.954 2.68161L389.242 2.70609C388.378 2.7079 387.804 3.2851 387.805 4.1491L387.943 69.909C387.945 70.773 388.522 71.3478 389.386 71.3459L401.098 71.3215C401.962 71.3197 402.633 70.7422 402.631 69.8782L402.581 46.0703C402.568 39.8303 405.633 36.5599 410.721 36.5493C415.905 36.5384 418.6 39.7968 418.613 46.0368L418.663 69.8447C418.665 70.7087 419.338 71.2833 420.202 71.2815L431.818 71.2572C432.682 71.2554 433.353 70.678 433.351 69.814L433.294 42.5501C433.268 30.2621 426.053 23.0772 416.261 23.0976Z" fill="black"/>
<circle cx="225.5" cy="64.5" r="7.5" fill="#01A2FD"/>
</svg>
