<svg width="435" height="103" viewBox="0 0 435 103" fill="none" xmlns="http://www.w3.org/2000/svg">
<path d="M54.598 4.81229C55.462 4.81048 56.0392 5.38528 56.041 6.24927L56.1755 70.5691C56.1773 71.4331 55.6025 72.0103 54.7385 72.0121L40.4346 72.042C39.6666 72.0437 39.0899 71.7569 38.7045 71.0857L16.3457 29.5643L16.4316 70.6522C16.4334 71.5162 15.8586 72.0934 14.9946 72.0952L2.70663 72.1209C1.84263 72.1227 1.26543 71.5479 1.26362 70.6839L1.12915 6.36408C1.12734 5.50008 1.70214 4.92288 2.56614 4.92107L16.8701 4.89116C17.6381 4.88956 18.2147 5.17636 18.6001 5.84755L40.959 47.3689L40.8731 6.28098C40.8713 5.41699 41.4461 4.83978 42.3101 4.83798L54.598 4.81229ZM89.5026 73.0915C74.0466 73.1238 63.5606 62.5857 63.5307 48.2817C63.5018 34.4577 73.1755 23.7815 87.6714 23.7512C102.071 23.7211 110.445 34.1676 110.471 46.2636C110.481 51.0636 109.239 53.9462 104.919 53.9552L77.8467 54.0118C79.4893 59.0964 83.9105 61.5831 90.6305 61.5691C93.7985 61.5625 97.0617 61.1716 100.993 58.9554C101.76 58.5698 102.145 58.761 102.722 59.4318L106.67 64.9916C107.055 65.5668 107.057 66.3347 106.194 67.1046C102.171 71.145 96.1266 73.0776 89.5026 73.0915ZM77.6334 43.8362L97.4094 43.7949C96.4375 38.1329 92.6887 35.8367 87.7927 35.847C82.8967 35.8572 78.7738 38.2658 77.6334 43.8362ZM118.281 71.8793C117.417 71.8811 116.84 71.3063 116.838 70.4423L116.746 26.2824C116.744 25.4184 117.319 24.8412 118.183 24.8394L129.511 24.8157C130.375 24.8139 130.952 25.1967 130.954 26.3487L131.446 31.8197C134.124 27.0141 138.437 23.645 145.157 23.631C154.949 23.6105 162.164 30.7955 162.189 43.0834L162.246 70.3474C162.248 71.2114 161.577 71.7888 160.713 71.7906L149.097 71.8149C148.233 71.8167 147.56 71.2421 147.558 70.3781L147.509 46.5701C147.495 40.3301 144.801 37.0718 139.617 37.0826C134.529 37.0932 131.464 40.3637 131.477 46.6036L131.526 70.4116C131.528 71.2756 130.857 71.853 129.993 71.8548L118.281 71.8793ZM194.6 72.8717C179.144 72.904 168.658 62.3659 168.628 48.062C168.599 34.238 178.273 23.5618 192.769 23.5315C207.169 23.5013 215.543 33.9479 215.568 46.0438C215.578 50.8438 214.336 53.7264 210.016 53.7355L182.944 53.7921C184.587 58.8766 189.008 61.3634 195.728 61.3494C198.896 61.3427 202.159 60.9519 206.09 58.7357C206.858 58.3501 207.242 58.5413 207.819 59.2121L211.767 64.7718C212.152 65.347 212.154 66.115 211.291 66.8848C207.268 70.9252 201.224 72.8579 194.6 72.8717ZM182.731 43.6165L202.507 43.5751C201.535 37.9132 197.786 35.617 192.89 35.6272C187.994 35.6375 183.871 38.0461 182.731 43.6165ZM241.075 71.6226C240.211 71.6244 239.634 71.0496 239.632 70.1856L239.497 5.86572C239.496 5.00172 240.07 4.42452 240.934 4.42271L275.206 4.35106C276.07 4.34925 276.647 4.92405 276.649 5.78804L276.671 16.348C276.673 17.212 276.098 17.7892 275.234 17.791L254.69 17.834L254.717 30.506L274.013 30.4656C274.877 30.4638 275.454 31.0386 275.456 31.9026L275.478 42.4626C275.48 43.3266 274.905 43.9038 274.041 43.9056L254.745 43.9459L254.8 70.1539C254.802 71.0179 254.227 71.5951 253.363 71.5969L241.075 71.6226ZM292.504 16.9869C287.896 16.9966 284.432 13.4518 284.423 8.9398C284.414 4.52381 287.862 0.964595 292.47 0.954961C297.078 0.945327 300.446 4.49029 300.455 8.90628C300.464 13.4183 297.112 16.9773 292.504 16.9869ZM286.666 71.5273C285.802 71.5291 285.225 70.9543 285.223 70.0903L285.13 25.9304C285.129 25.0664 285.703 24.4892 286.567 24.4874L298.471 24.4625C299.335 24.4607 299.913 25.0355 299.914 25.8995L300.007 70.0594C300.009 70.9234 299.434 71.5006 298.57 71.5024L286.666 71.5273ZM327.546 72.5938C319.77 72.61 312.371 69.0735 312.348 58.1295L312.301 35.7616L306.445 35.7738C305.581 35.7756 305.004 35.2008 305.002 34.3368L304.984 25.8889C304.983 25.0249 305.557 24.4477 306.421 24.4458L312.277 24.4336L312.254 13.3936C312.252 12.5296 312.923 11.9522 313.787 11.9504L325.595 11.9257C326.459 11.9239 327.132 12.4985 327.134 13.3625L327.157 24.4025L334.357 24.3874C335.221 24.3856 335.799 24.9604 335.8 25.8244L335.818 34.2724C335.82 35.1364 335.245 35.7136 334.381 35.7154L327.181 35.7305L327.224 56.4664C327.23 59.0584 328.865 60.399 331.265 60.394C332.129 60.3922 332.993 60.3904 334.24 60.2918C335.2 60.1938 335.969 60.6721 335.971 61.6321L335.988 69.6001C335.993 72.0001 330.81 72.587 327.546 72.5938ZM363.946 72.5177C349.546 72.5478 338.963 61.7219 338.934 47.6099C338.905 33.786 349.251 23.2043 363.459 23.1746C371.331 23.1581 377.674 26.5049 381.717 31.7764C382.294 32.3512 382.2 33.2154 381.625 33.7926L375.014 40.1425C374.248 40.9121 373.192 40.9143 372.422 40.2439C369.921 37.7531 367.423 36.6063 364.159 36.6132C357.247 36.6276 353.033 41.5324 353.046 47.5804C353.058 53.7244 357.294 59.0916 364.398 59.0767C367.566 59.0701 370.059 57.8169 372.646 55.4115C373.317 54.7381 374.373 54.7358 375.142 55.5022L381.779 61.8244C382.357 62.3992 382.454 63.167 381.88 63.8402C377.859 69.1286 371.53 72.5018 363.946 72.5177ZM416.997 23.0627C426.789 23.0422 434.004 30.2271 434.03 42.5151L434.087 69.779C434.089 70.643 433.418 71.2204 432.554 71.2222L420.938 71.2465C420.074 71.2483 419.401 70.6737 419.399 69.8097L419.349 46.0018C419.336 39.7618 416.641 36.5034 411.457 36.5143C406.369 36.5249 403.304 39.7953 403.317 46.0353L403.367 69.8433C403.369 70.7073 402.698 71.2847 401.834 71.2865L390.122 71.311C389.258 71.3128 388.681 70.738 388.679 69.874L388.542 4.11411C388.54 3.25011 389.115 2.67291 389.979 2.6711L401.69 2.64662C402.554 2.64481 403.228 3.2194 403.229 4.0834L403.286 31.2513C405.964 26.4457 410.277 23.0767 416.997 23.0627Z" fill="white"/>
<path d="M5.56 98.24C3.34 98.24 1.76 97.14 0.92 96.02C0.82 95.9 0.82 95.74 0.96 95.58L2.3 94.06C2.42 93.92 2.58 93.86 2.76 94C3.68 94.9 4.44 95.34 5.5 95.34C6.52 95.34 7.24 94.94 7.24 94.06C7.24 93.24 6.64 92.98 5.76 92.58L4.06 91.78C2.58 91.12 1.18 90.06 1.18 87.88C1.18 85.26 3.16 83.84 5.6 83.84C7.26 83.84 8.64 84.5 9.8 85.7C9.92 85.82 9.94 86 9.82 86.16L8.5 87.74C8.4 87.88 8.22 87.94 8.08 87.84C7.18 87.08 6.52 86.74 5.7 86.74C4.78 86.74 4.24 87.2 4.24 87.92C4.24 88.68 4.8 88.92 5.82 89.4L7.24 90.04C8.72 90.74 10.32 91.66 10.32 94.06C10.32 96.98 7.92 98.24 5.56 98.24ZM17.1723 98.24C13.9523 98.24 11.7723 96.04 11.7723 93.06C11.7723 90.18 13.7923 87.96 16.8123 87.96C19.8123 87.96 21.5523 90.14 21.5523 92.66C21.5523 93.66 21.2923 94.26 20.3923 94.26H14.7523C15.0923 95.32 16.0123 95.84 17.4123 95.84C18.0723 95.84 18.7523 95.76 19.5723 95.3C19.7323 95.22 19.8123 95.26 19.9323 95.4L20.7523 96.56C20.8323 96.68 20.8323 96.84 20.6523 97C19.8123 97.84 18.5523 98.24 17.1723 98.24ZM14.7123 92.14H18.8323C18.6323 90.96 17.8523 90.48 16.8323 90.48C15.8123 90.48 14.9523 90.98 14.7123 92.14ZM27.3684 98.24C24.6484 98.24 22.7684 96.02 22.7684 93.1C22.7684 90.2 24.6484 87.96 27.3684 87.96C28.8084 87.96 29.7884 88.52 30.4284 89.44L30.4684 88.5C30.4684 88.32 30.6084 88.2 30.7884 88.2H33.0084C33.1884 88.2 33.3284 88.32 33.3284 88.5V97.7C33.3284 97.88 33.1684 98 32.9884 98H30.7884C30.6084 98 30.4684 97.88 30.4684 97.7L30.4284 96.74C29.7684 97.68 28.7684 98.24 27.3684 98.24ZM28.0284 95.46C29.3684 95.46 30.2884 94.52 30.2884 93.08C30.2884 91.68 29.3684 90.74 28.0284 90.74C26.7284 90.74 25.7484 91.68 25.7484 93.1C25.7484 94.54 26.7284 95.46 28.0284 95.46ZM35.8536 98C35.6736 98 35.5536 97.88 35.5536 97.7V88.5C35.5536 88.32 35.6736 88.2 35.8536 88.2H38.2136C38.3936 88.2 38.5136 88.28 38.5136 88.52L38.5936 89.54C39.1336 88.62 40.0336 87.96 41.3336 87.96C42.5736 87.96 43.5336 88.54 44.0936 89.64C44.6336 88.66 45.6136 87.96 47.0936 87.96C49.2136 87.96 50.5136 89.44 50.5136 91.98V97.7C50.5136 97.88 50.3736 98 50.1936 98H47.7736C47.5936 98 47.4536 97.88 47.4536 97.7V92.68C47.4536 91.44 47.0136 90.76 46.0336 90.76C45.0736 90.76 44.5536 91.42 44.5536 92.68V97.7C44.5536 97.88 44.4336 98 44.2536 98H41.8336C41.6336 98 41.4936 97.88 41.4936 97.7V92.68C41.4936 91.44 41.0536 90.76 40.0736 90.76C39.1336 90.76 38.6136 91.42 38.6136 92.68V97.7C38.6136 97.88 38.4736 98 38.2936 98H35.8536ZM53.0411 98C52.8611 98 52.7411 97.88 52.7411 97.7V84C52.7411 83.82 52.8611 83.7 53.0411 83.7H55.5011C55.6811 83.7 55.8211 83.82 55.8211 84V97.7C55.8211 97.88 55.6811 98 55.5011 98H53.0411ZM62.9341 98.24C59.7141 98.24 57.5341 96.04 57.5341 93.06C57.5341 90.18 59.5541 87.96 62.5741 87.96C65.5741 87.96 67.3141 90.14 67.3141 92.66C67.3141 93.66 67.0541 94.26 66.1541 94.26H60.5141C60.8541 95.32 61.7741 95.84 63.1741 95.84C63.8341 95.84 64.5141 95.76 65.3341 95.3C65.4941 95.22 65.5741 95.26 65.6941 95.4L66.5141 96.56C66.5941 96.68 66.5941 96.84 66.4141 97C65.5741 97.84 64.3141 98.24 62.9341 98.24ZM60.4741 92.14H64.5941C64.3941 90.96 63.6141 90.48 62.5941 90.48C61.5741 90.48 60.7141 90.98 60.4741 92.14ZM72.2748 98.24C70.6148 98.24 69.3148 97.56 68.4948 96.58C68.3948 96.44 68.4148 96.2 68.5548 96L69.3548 94.88C69.5148 94.62 69.6948 94.68 69.8548 94.78C70.7148 95.4 71.3748 95.7 72.0748 95.7C72.6148 95.7 72.9748 95.5 72.9748 95.06C72.9748 94.68 72.7548 94.46 72.0948 94.2L70.8148 93.68C69.5348 93.18 68.6948 92.34 68.6948 90.98C68.6948 89.06 70.3348 87.96 72.2148 87.96C73.5148 87.96 74.7348 88.5 75.5948 89.5C75.7148 89.64 75.6548 89.8 75.5748 89.92L74.5548 91.12C74.4148 91.26 74.2748 91.24 74.0948 91.12C73.4548 90.62 72.9148 90.34 72.3748 90.34C71.7748 90.34 71.5948 90.68 71.5948 90.98C71.5948 91.34 71.9348 91.6 72.3748 91.78L73.8548 92.36C75.0748 92.84 76.0548 93.7 76.0148 95.18C75.9948 97.2 74.2548 98.24 72.2748 98.24ZM81.2983 98.24C79.6383 98.24 78.3383 97.56 77.5183 96.58C77.4183 96.44 77.4383 96.2 77.5783 96L78.3783 94.88C78.5383 94.62 78.7183 94.68 78.8783 94.78C79.7383 95.4 80.3983 95.7 81.0983 95.7C81.6383 95.7 81.9983 95.5 81.9983 95.06C81.9983 94.68 81.7783 94.46 81.1183 94.2L79.8383 93.68C78.5583 93.18 77.7183 92.34 77.7183 90.98C77.7183 89.06 79.3583 87.96 81.2383 87.96C82.5383 87.96 83.7583 88.5 84.6183 89.5C84.7383 89.64 84.6783 89.8 84.5983 89.92L83.5783 91.12C83.4383 91.26 83.2983 91.24 83.1183 91.12C82.4783 90.62 81.9383 90.34 81.3983 90.34C80.7983 90.34 80.6183 90.68 80.6183 90.98C80.6183 91.34 80.9583 91.6 81.3983 91.78L82.8783 92.36C84.0983 92.84 85.0783 93.7 85.0383 95.18C85.0183 97.2 83.2783 98.24 81.2983 98.24ZM97.7884 98.26C93.8284 98.26 90.5684 95.18 90.5684 91.06C90.5684 86.94 93.8284 83.84 97.7884 83.84C99.8084 83.84 101.488 84.64 102.728 85.92C102.868 86.06 102.828 86.2 102.728 86.32L101.128 88.02C101.008 88.16 100.848 88.16 100.708 88.06C99.9284 87.38 98.9684 86.94 97.8084 86.94C95.5084 86.94 93.7684 88.68 93.7684 91.06C93.7684 93.42 95.5084 95.16 97.8084 95.16C98.9684 95.16 99.9284 94.72 100.708 94.04C100.848 93.94 101.008 93.94 101.128 94.08L102.728 95.78C102.828 95.9 102.868 96.04 102.728 96.18C101.488 97.46 99.8084 98.26 97.7884 98.26ZM110.673 87.96C112.713 87.96 114.213 89.46 114.213 92.02V97.7C114.213 97.88 114.073 98 113.893 98H111.473C111.293 98 111.153 97.88 111.153 97.7V92.74C111.153 91.44 110.593 90.76 109.513 90.76C108.453 90.76 107.813 91.44 107.813 92.74V97.7C107.813 97.88 107.673 98 107.493 98H105.053C104.873 98 104.753 97.88 104.753 97.7V84C104.753 83.82 104.873 83.7 105.053 83.7H107.493C107.673 83.7 107.813 83.82 107.813 84V89.66C108.373 88.66 109.273 87.96 110.673 87.96ZM120.552 98.24C117.832 98.24 115.952 96.02 115.952 93.1C115.952 90.2 117.832 87.96 120.552 87.96C121.992 87.96 122.972 88.52 123.612 89.44L123.652 88.5C123.652 88.32 123.792 88.2 123.972 88.2H126.192C126.372 88.2 126.512 88.32 126.512 88.5V97.7C126.512 97.88 126.352 98 126.172 98H123.972C123.792 98 123.652 97.88 123.652 97.7L123.612 96.74C122.952 97.68 121.952 98.24 120.552 98.24ZM121.212 95.46C122.552 95.46 123.472 94.52 123.472 93.08C123.472 91.68 122.552 90.74 121.212 90.74C119.912 90.74 118.932 91.68 118.932 93.1C118.932 94.54 119.912 95.46 121.212 95.46ZM129.037 98C128.857 98 128.737 97.88 128.737 97.7V88.5C128.737 88.32 128.857 88.2 129.037 88.2H131.397C131.577 88.2 131.697 88.28 131.697 88.52L131.797 89.66C132.357 88.66 133.257 87.96 134.657 87.96C136.697 87.96 138.197 89.46 138.197 92.02V97.7C138.197 97.88 138.057 98 137.877 98H135.457C135.277 98 135.137 97.88 135.137 97.7V92.74C135.137 91.44 134.577 90.76 133.497 90.76C132.437 90.76 131.797 91.44 131.797 92.74V97.7C131.797 97.88 131.657 98 131.477 98H129.037ZM145.096 102.1C143.616 102.1 142.196 101.7 141.176 100.92C140.976 100.78 140.956 100.52 141.076 100.32L141.696 99.1C141.816 98.88 141.996 98.78 142.236 98.92C143.116 99.38 143.956 99.62 144.796 99.62C146.056 99.62 147.396 99.1 147.396 97.42V96.5C146.796 97.3 145.836 97.78 144.496 97.78C141.756 97.78 139.936 95.76 139.936 92.86C139.936 90 141.756 87.96 144.516 87.96C145.896 87.96 146.816 88.44 147.416 89.26L147.476 88.5C147.476 88.32 147.596 88.2 147.776 88.2H150.016C150.196 88.2 150.316 88.32 150.316 88.5V97.42C150.316 101.04 147.476 102.1 145.096 102.1ZM145.116 95.04C146.376 95.04 147.276 94.2 147.276 92.86C147.276 91.54 146.376 90.7 145.116 90.7C143.836 90.7 142.916 91.54 142.916 92.86C142.916 94.2 143.836 95.04 145.116 95.04ZM157.465 98.24C154.245 98.24 152.065 96.04 152.065 93.06C152.065 90.18 154.085 87.96 157.105 87.96C160.105 87.96 161.845 90.14 161.845 92.66C161.845 93.66 161.585 94.26 160.685 94.26H155.045C155.385 95.32 156.305 95.84 157.705 95.84C158.365 95.84 159.045 95.76 159.865 95.3C160.025 95.22 160.105 95.26 160.225 95.4L161.045 96.56C161.125 96.68 161.125 96.84 160.945 97C160.105 97.84 158.845 98.24 157.465 98.24ZM155.005 92.14H159.125C158.925 90.96 158.145 90.48 157.125 90.48C156.105 90.48 155.245 90.98 155.005 92.14ZM162.461 100.6V99.94C163.941 99.96 164.861 98.22 164.161 98.22C163.221 98.22 162.401 97.42 162.401 96.44C162.401 95.46 163.221 94.66 164.221 94.66C165.201 94.66 166.201 95.36 166.201 97.02C166.201 99.5 163.921 100.7 162.461 100.6ZM172.284 98C172.104 98 171.984 97.88 171.984 97.7V84.3C171.984 84.12 172.104 84 172.284 84H176.584C179.964 84 181.564 85.88 181.564 88.6C181.564 91.32 179.964 93.18 176.584 93.18H175.144V97.7C175.144 97.88 175.024 98 174.844 98H172.284ZM175.144 90.38H176.504C177.564 90.38 178.544 90.04 178.544 88.6C178.544 87.14 177.564 86.8 176.504 86.8H175.144V90.38ZM187.44 98.24C184.48 98.24 182.3 96 182.3 93.1C182.3 90.2 184.48 87.96 187.44 87.96C190.4 87.96 192.6 90.2 192.6 93.1C192.6 96 190.4 98.24 187.44 98.24ZM187.44 95.44C188.68 95.44 189.64 94.54 189.64 93.1C189.64 91.66 188.68 90.76 187.44 90.76C186.2 90.76 185.24 91.66 185.24 93.1C185.24 94.54 186.2 95.44 187.44 95.44ZM196.42 98C196.26 98 196.12 97.92 196.06 97.76L193.02 88.54C192.94 88.32 193.06 88.2 193.28 88.2H195.64C195.8 88.2 195.94 88.28 196 88.44L197.82 94.44L199.8 88.44C199.86 88.28 200 88.2 200.16 88.2H202.5C202.66 88.2 202.8 88.28 202.86 88.44L204.84 94.44L206.66 88.44C206.72 88.28 206.86 88.2 207.02 88.2H209.4C209.62 88.2 209.72 88.32 209.64 88.54L206.6 97.76C206.54 97.92 206.4 98 206.24 98H203.74C203.58 98 203.44 97.92 203.38 97.76L201.34 91.76L199.28 97.76C199.22 97.92 199.08 98 198.92 98H196.42ZM215.473 98.24C212.253 98.24 210.073 96.04 210.073 93.06C210.073 90.18 212.093 87.96 215.113 87.96C218.113 87.96 219.853 90.14 219.853 92.66C219.853 93.66 219.593 94.26 218.693 94.26H213.053C213.393 95.32 214.313 95.84 215.713 95.84C216.373 95.84 217.053 95.76 217.873 95.3C218.033 95.22 218.113 95.26 218.233 95.4L219.053 96.56C219.133 96.68 219.133 96.84 218.953 97C218.113 97.84 216.853 98.24 215.473 98.24ZM213.013 92.14H217.133C216.933 90.96 216.153 90.48 215.133 90.48C214.113 90.48 213.253 90.98 213.013 92.14ZM221.869 98C221.689 98 221.569 97.88 221.569 97.7V88.5C221.569 88.32 221.689 88.2 221.869 88.2H224.229C224.409 88.2 224.529 88.28 224.529 88.52L224.629 89.82C224.949 88.76 225.569 87.96 226.709 87.96C227.189 87.96 227.449 88.1 227.609 88.22C227.749 88.32 227.789 88.44 227.789 88.62V90.56C227.789 90.82 227.649 90.88 227.369 90.82C227.169 90.76 226.949 90.72 226.649 90.72C225.389 90.72 224.629 91.52 224.629 92.98V97.7C224.629 97.88 224.489 98 224.309 98H221.869ZM230.796 98C230.616 98 230.496 97.88 230.496 97.7V90.56H229.336C229.156 90.56 229.036 90.44 229.036 90.26V88.5C229.036 88.32 229.156 88.2 229.336 88.2H230.496V86.82C230.496 84.42 231.836 83.38 234.016 83.38C234.616 83.38 235.056 83.42 235.656 83.72C235.776 83.78 235.836 83.92 235.836 84.04V86.06C235.836 86.2 235.716 86.22 235.576 86.2C235.236 86.14 234.956 86.08 234.736 86.08C233.796 86.08 233.576 86.56 233.576 87.22V88.2H235.536C235.716 88.2 235.836 88.32 235.836 88.5V90.26C235.836 90.44 235.716 90.56 235.536 90.56H233.576V97.7C233.576 97.88 233.436 98 233.256 98H230.796ZM240.773 98.24C238.733 98.24 237.253 96.74 237.253 94.18V88.5C237.253 88.32 237.373 88.2 237.553 88.2H239.993C240.173 88.2 240.313 88.32 240.313 88.5V93.46C240.313 94.76 240.873 95.44 241.953 95.44C242.993 95.44 243.653 94.76 243.653 93.46V88.5C243.653 88.32 243.793 88.2 243.973 88.2H246.393C246.573 88.2 246.713 88.32 246.713 88.5V97.7C246.713 97.88 246.573 98 246.393 98H244.053C243.873 98 243.733 97.92 243.733 97.68L243.653 96.54C243.093 97.54 242.193 98.24 240.773 98.24ZM249.252 98C249.072 98 248.952 97.88 248.952 97.7V84C248.952 83.82 249.072 83.7 249.252 83.7H251.712C251.892 83.7 252.032 83.82 252.032 84V97.7C252.032 97.88 251.892 98 251.712 98H249.252ZM258.632 98C258.452 98 258.332 97.88 258.332 97.7V84.3C258.332 84.12 258.452 84 258.632 84H263.492C265.992 84 267.372 85.62 267.372 87.56C267.372 89.06 266.472 90.04 265.572 90.48C266.932 90.84 268.292 91.98 268.292 94.02C268.292 96.38 266.672 98 263.292 98H258.632ZM261.452 89.48H262.832C263.792 89.48 264.392 89.1 264.392 88.08C264.392 87.12 263.792 86.78 262.832 86.78H261.452V89.48ZM261.452 95.22H263.092C264.272 95.22 265.072 94.72 265.072 93.56C265.072 92.38 264.272 91.94 263.092 91.94H261.452V95.22ZM273.527 98.24C271.487 98.24 270.007 96.74 270.007 94.18V88.5C270.007 88.32 270.127 88.2 270.307 88.2H272.747C272.927 88.2 273.067 88.32 273.067 88.5V93.46C273.067 94.76 273.627 95.44 274.707 95.44C275.747 95.44 276.407 94.76 276.407 93.46V88.5C276.407 88.32 276.547 88.2 276.727 88.2H279.147C279.327 88.2 279.467 88.32 279.467 88.5V97.7C279.467 97.88 279.327 98 279.147 98H276.807C276.627 98 276.487 97.92 276.487 97.68L276.407 96.54C275.847 97.54 274.947 98.24 273.527 98.24ZM285.146 98.24C283.486 98.24 282.186 97.56 281.366 96.58C281.266 96.44 281.286 96.2 281.426 96L282.226 94.88C282.386 94.62 282.566 94.68 282.726 94.78C283.586 95.4 284.246 95.7 284.946 95.7C285.486 95.7 285.846 95.5 285.846 95.06C285.846 94.68 285.626 94.46 284.966 94.2L283.686 93.68C282.406 93.18 281.566 92.34 281.566 90.98C281.566 89.06 283.206 87.96 285.086 87.96C286.386 87.96 287.606 88.5 288.466 89.5C288.586 89.64 288.526 89.8 288.446 89.92L287.426 91.12C287.286 91.26 287.146 91.24 286.966 91.12C286.326 90.62 285.786 90.34 285.246 90.34C284.646 90.34 284.466 90.68 284.466 90.98C284.466 91.34 284.806 91.6 285.246 91.78L286.726 92.36C287.946 92.84 288.926 93.7 288.886 95.18C288.866 97.2 287.126 98.24 285.146 98.24ZM292.289 86.64C291.329 86.64 290.609 85.9 290.609 84.96C290.609 84.04 291.329 83.3 292.289 83.3C293.249 83.3 293.949 84.04 293.949 84.96C293.949 85.9 293.249 86.64 292.289 86.64ZM291.049 98C290.869 98 290.749 97.88 290.749 97.7V88.5C290.749 88.32 290.869 88.2 291.049 88.2H293.529C293.709 88.2 293.829 88.32 293.829 88.5V97.7C293.829 97.88 293.709 98 293.529 98H291.049ZM296.381 98C296.201 98 296.081 97.88 296.081 97.7V88.5C296.081 88.32 296.201 88.2 296.381 88.2H298.741C298.921 88.2 299.041 88.28 299.041 88.52L299.141 89.66C299.701 88.66 300.601 87.96 302.001 87.96C304.041 87.96 305.541 89.46 305.541 92.02V97.7C305.541 97.88 305.401 98 305.221 98H302.801C302.621 98 302.481 97.88 302.481 97.7V92.74C302.481 91.44 301.921 90.76 300.841 90.76C299.781 90.76 299.141 91.44 299.141 92.74V97.7C299.141 97.88 299.001 98 298.821 98H296.381ZM312.68 98.24C309.46 98.24 307.28 96.04 307.28 93.06C307.28 90.18 309.3 87.96 312.32 87.96C315.32 87.96 317.06 90.14 317.06 92.66C317.06 93.66 316.8 94.26 315.9 94.26H310.26C310.6 95.32 311.52 95.84 312.92 95.84C313.58 95.84 314.26 95.76 315.08 95.3C315.24 95.22 315.32 95.26 315.44 95.4L316.26 96.56C316.34 96.68 316.34 96.84 316.16 97C315.32 97.84 314.06 98.24 312.68 98.24ZM310.22 92.14H314.34C314.14 90.96 313.36 90.48 312.34 90.48C311.32 90.48 310.46 90.98 310.22 92.14ZM322.021 98.24C320.361 98.24 319.061 97.56 318.241 96.58C318.141 96.44 318.161 96.2 318.301 96L319.101 94.88C319.261 94.62 319.441 94.68 319.601 94.78C320.461 95.4 321.121 95.7 321.821 95.7C322.361 95.7 322.721 95.5 322.721 95.06C322.721 94.68 322.501 94.46 321.841 94.2L320.561 93.68C319.281 93.18 318.441 92.34 318.441 90.98C318.441 89.06 320.081 87.96 321.961 87.96C323.261 87.96 324.481 88.5 325.341 89.5C325.461 89.64 325.401 89.8 325.321 89.92L324.301 91.12C324.161 91.26 324.021 91.24 323.841 91.12C323.201 90.62 322.661 90.34 322.121 90.34C321.521 90.34 321.341 90.68 321.341 90.98C321.341 91.34 321.681 91.6 322.121 91.78L323.601 92.36C324.821 92.84 325.801 93.7 325.761 95.18C325.741 97.2 324.001 98.24 322.021 98.24ZM331.044 98.24C329.384 98.24 328.084 97.56 327.264 96.58C327.164 96.44 327.184 96.2 327.324 96L328.124 94.88C328.284 94.62 328.464 94.68 328.624 94.78C329.484 95.4 330.144 95.7 330.844 95.7C331.384 95.7 331.744 95.5 331.744 95.06C331.744 94.68 331.524 94.46 330.864 94.2L329.584 93.68C328.304 93.18 327.464 92.34 327.464 90.98C327.464 89.06 329.104 87.96 330.984 87.96C332.284 87.96 333.504 88.5 334.364 89.5C334.484 89.64 334.424 89.8 334.344 89.92L333.324 91.12C333.184 91.26 333.044 91.24 332.864 91.12C332.224 90.62 331.684 90.34 331.144 90.34C330.544 90.34 330.364 90.68 330.364 90.98C330.364 91.34 330.704 91.6 331.144 91.78L332.624 92.36C333.844 92.84 334.824 93.7 334.784 95.18C334.764 97.2 333.024 98.24 331.044 98.24ZM350.755 97.64C350.895 97.86 350.795 98 350.555 98H347.815C347.655 98 347.535 97.94 347.455 97.8L344.595 93.18H343.875V97.7C343.875 97.88 343.755 98 343.575 98H341.015C340.835 98 340.715 97.88 340.715 97.7V84.3C340.715 84.12 340.835 84 341.015 84H345.315C348.695 84 350.295 85.88 350.295 88.6C350.295 90.58 349.435 92.12 347.655 92.8L350.755 97.64ZM343.875 86.8V90.38H345.235C346.295 90.38 347.275 90.04 347.275 88.6C347.275 87.14 346.295 86.8 345.235 86.8H343.875ZM356.938 98.24C353.718 98.24 351.538 96.04 351.538 93.06C351.538 90.18 353.558 87.96 356.578 87.96C359.578 87.96 361.318 90.14 361.318 92.66C361.318 93.66 361.058 94.26 360.158 94.26H354.518C354.858 95.32 355.778 95.84 357.178 95.84C357.838 95.84 358.518 95.76 359.338 95.3C359.498 95.22 359.578 95.26 359.698 95.4L360.518 96.56C360.598 96.68 360.598 96.84 360.418 97C359.578 97.84 358.318 98.24 356.938 98.24ZM354.478 92.14H358.598C358.398 90.96 357.618 90.48 356.598 90.48C355.578 90.48 354.718 90.98 354.478 92.14ZM366.279 98.24C364.619 98.24 363.319 97.56 362.499 96.58C362.399 96.44 362.419 96.2 362.559 96L363.359 94.88C363.519 94.62 363.699 94.68 363.859 94.78C364.719 95.4 365.379 95.7 366.079 95.7C366.619 95.7 366.979 95.5 366.979 95.06C366.979 94.68 366.759 94.46 366.099 94.2L364.819 93.68C363.539 93.18 362.699 92.34 362.699 90.98C362.699 89.06 364.339 87.96 366.219 87.96C367.519 87.96 368.739 88.5 369.599 89.5C369.719 89.64 369.659 89.8 369.579 89.92L368.559 91.12C368.419 91.26 368.279 91.24 368.099 91.12C367.459 90.62 366.919 90.34 366.379 90.34C365.779 90.34 365.599 90.68 365.599 90.98C365.599 91.34 365.939 91.6 366.379 91.78L367.859 92.36C369.079 92.84 370.059 93.7 370.019 95.18C369.999 97.2 368.259 98.24 366.279 98.24ZM375.382 98.24C373.342 98.24 371.862 96.74 371.862 94.18V88.5C371.862 88.32 371.982 88.2 372.162 88.2H374.602C374.782 88.2 374.922 88.32 374.922 88.5V93.46C374.922 94.76 375.482 95.44 376.562 95.44C377.602 95.44 378.262 94.76 378.262 93.46V88.5C378.262 88.32 378.402 88.2 378.582 88.2H381.002C381.182 88.2 381.322 88.32 381.322 88.5V97.7C381.322 97.88 381.182 98 381.002 98H378.662C378.482 98 378.342 97.92 378.342 97.68L378.262 96.54C377.702 97.54 376.802 98.24 375.382 98.24ZM383.861 98C383.681 98 383.561 97.88 383.561 97.7V84C383.561 83.82 383.681 83.7 383.861 83.7H386.321C386.501 83.7 386.641 83.82 386.641 84V97.7C386.641 97.88 386.501 98 386.321 98H383.861ZM392.739 98.24C391.119 98.24 389.579 97.5 389.579 95.22V90.56H388.359C388.179 90.56 388.059 90.44 388.059 90.26V88.5C388.059 88.32 388.179 88.2 388.359 88.2H389.579V85.9C389.579 85.72 389.719 85.6 389.899 85.6H392.359C392.539 85.6 392.679 85.72 392.679 85.9V88.2H394.179C394.359 88.2 394.479 88.32 394.479 88.5V90.26C394.479 90.44 394.359 90.56 394.179 90.56H392.679V94.88C392.679 95.42 393.019 95.7 393.519 95.7C393.699 95.7 393.879 95.7 394.139 95.68C394.339 95.66 394.499 95.76 394.499 95.96V97.62C394.499 98.12 393.419 98.24 392.739 98.24ZM399.619 98.24C397.959 98.24 396.659 97.56 395.839 96.58C395.739 96.44 395.759 96.2 395.899 96L396.699 94.88C396.859 94.62 397.039 94.68 397.199 94.78C398.059 95.4 398.719 95.7 399.419 95.7C399.959 95.7 400.319 95.5 400.319 95.06C400.319 94.68 400.099 94.46 399.439 94.2L398.159 93.68C396.879 93.18 396.039 92.34 396.039 90.98C396.039 89.06 397.679 87.96 399.559 87.96C400.859 87.96 402.079 88.5 402.939 89.5C403.059 89.64 402.999 89.8 402.919 89.92L401.899 91.12C401.759 91.26 401.619 91.24 401.439 91.12C400.799 90.62 400.259 90.34 399.719 90.34C399.119 90.34 398.939 90.68 398.939 90.98C398.939 91.34 399.279 91.6 399.719 91.78L401.199 92.36C402.419 92.84 403.399 93.7 403.359 95.18C403.339 97.2 401.599 98.24 399.619 98.24Z" fill="white"/>
<circle cx="227.5" cy="65.5" r="7.5" fill="#01A2FD"/>
</svg>
